<?xml version="1.0" standalone="no"?><!DOCTYPE svg PUBLIC "-//W3C//DTD SVG 1.1//EN" "http://www.w3.org/Graphics/SVG/1.1/DTD/svg11.dtd"><svg class="icon" width="200px" height="172.54px" viewBox="0 0 1187 1024" version="1.1" xmlns="http://www.w3.org/2000/svg"><path fill="#ffffff" d="M406.736182 946.759263m-77.240737 0a77.240737 77.240737 0 1 0 154.481473 0 77.240737 77.240737 0 1 0-154.481473 0Z"  /><path fill="#ffffff" d="M1015.373632 946.759263m-77.240737 0a77.240737 77.240737 0 1 0 154.481473 0 77.240737 77.240737 0 1 0-154.481473 0Z"  /><path fill="#ffffff" d="M620.370371 811.832407H404.291855a160.836724 160.836724 0 0 1-141.770973-146.659626c0-2.933193-48.886542-345.627853-64.530235-491.309749a132.971395 132.971395 0 0 0-38.620369-91.417834 48.886542 48.886542 0 0 0-28.84306-9.777309H36.176192A35.687176 35.687176 0 1 1 36.176192 0.315807h86.040314a116.34997 116.34997 0 0 1 79.685064 23.954406 195.546169 195.546169 0 0 1 66.485697 140.304376c17.599155 146.659626 64.04137 488.865422 64.530236 488.865421S342.694811 733.61394 408.691643 738.991459c74.307544 4.399789 677.567474 0 684.411591 0a34.709445 34.709445 0 0 1 35.687175 35.198311 35.687176 35.687176 0 0 1-35.19831 35.687175c-17.599155 0-275.720098 1.955462-473.221728 1.955462z"  /><path fill="#ffffff" d="M289.897346 602.109141S782.673691 594.77616 920.53374 586.954313 1075.992944 504.824922 1075.992944 504.824922s56.708389-217.545113 72.840948-301.1411C1171.321701 80.489736 1062.304712 98.088891 1062.304712 98.088891H227.811437z"  /><path fill="#ffffff" d="M258.609959 635.840855L187.724473 62.401716h872.135912a120.749759 120.749759 0 0 1 97.773084 30.309656 126.616144 126.616144 0 0 1 24.443271 117.816566c-16.132559 83.595987-70.885486 293.319253-73.329813 303.096562s-27.376464 97.773084-186.746591 108.039258c-136.882318 8.799578-612.059508 15.643693-632.10299 16.132559z m9.777308-504.509115l53.286331 432.157033c111.461316 0 482.021306-7.821847 596.90468-15.154828 105.594931-6.844116 121.72749-53.286331 122.216356-55.241793S1097.014157 278.480232 1112.65785 195.861976a65.996832 65.996832 0 0 0-5.377519-54.752928 52.3086 52.3086 0 0 0-39.109234-9.288443H267.898402z"  /></svg>